#!OML:ASF Y:\EmotionMaleHayes\Project 1\Capture day 1\Session 1\Male1.ASF
:FULLY-SPECIFIED
:DEGREES
1
root -28.7674 17.1236 1.02383 15.9595 87.1217 14.4842
lowerback 3.89299 1.70598 -3.52204
upperback 1.47889 2.16128 -0.533934
thorax -0.770484 1.08473 1.32586
lowerneck -22.2465 2.04468 4.64238
upperneck 25.3106 1.38294 0.239617
head 12.075 1.19559 -0.436691
rclavicle -5.26779e-015 -7.95139e-016
rhumerus 0 0 0
rradius 0
rwrist 0
rhand 0 0
rfingers 0
rthumb 0 0
lclavicle -5.26779e-015 -7.95139e-016
lhumerus -35.3143 -9.30709 90.9313
lradius 37.2059
lwrist -6.26523
lhand 0 0
lfingers 0
lthumb 0 0
rfemur 8.21163 -4.40651 14.1628
rtibia 1.61551
rfoot -16.0735 -6.20803
rtoes 2.10848
lfemur 9.69736 -0.303483 -15.9544
ltibia -2.09851
lfoot -9.68198 6.47189
ltoes 0
2
root -28.7668 17.1276 1.02376 16.3262 87.0801 14.9415
lowerback 4.01105 1.75659 -3.48926
upperback 1.48273 2.22512 -0.561558
thorax -0.833305 1.11787 1.27233
lowerneck -22.1625 2.00357 4.65991
upperneck 25.282 1.38078 0.045973
head 12.0479 1.16954 -0.513796
rclavicle 1.00386e-014 -1.5704e-014
rhumerus 0 0 0
rradius 0
rwrist 0
rhand 0 0
rfingers 0
rthumb 0 0
lclavicle 1.00386e-014 -1.5704e-014
lhumerus -35.2452 -9.32993 90.941
lradius 37.0809
lwrist -6.39787
lhand 0 0
lfingers 0
lthumb 0 0
rfemur 8.33031 -4.41087 14.1063
rtibia 1.58463
rfoot -16.1765 -6.18616
rtoes 1.58817
lfemur 10.0446 -1.4581 -16.3664
ltibia -2.50144
lfoot -9.94907 7.59241
ltoes 0
3
root -28.7673 17.1272 1.02435 16.1601 87.0752 14.7747
lowerback 4.03747 1.76993 -3.47572
upperback 1.45876 2.24133 -0.561068
thorax -0.873004 1.1267 1.2631
lowerneck -22.1615 1.99433 4.74045
upperneck 25.314 1.37072 -0.0601649
head 12.0613 1.15941 -0.568761
rclavicle -2.00276e-014 9.54166e-015
rhumerus 0 0 0
rradius 0
rwrist 0
rhand 0 0
rfingers 0
rthumb 0 0
lclavicle -2.00276e-014 9.54166e-015
lhumerus -35.3463 -9.44032 90.9792
lradius 37.172
lwrist -6.33485
lhand 0 0
lfingers 0
lthumb 0 0
rfemur 8.32431 -4.42922 14.1135
rtibia 1.60277
rfoot -16.1748 -6.21915
rtoes 1.45385
lfemur 10.1392 -1.85497 -16.4751
ltibia -2.67234
lfoot -9.93324 7.97884
ltoes 0
4
root -28.7673 17.1257 1.02531 16.0504 87.1166 14.6428
lowerback 4.06411 1.74779 -3.51298
upperback 1.41254 2.20758 -0.522902
thorax -0.936634 1.11083 1.32299
lowerneck -21.9924 2.01264 4.69967
upperneck 25.2455 1.41624 -0.0354328
head 12.0019 1.17856 -0.546403
rclavicle 1.61513e-015 -5.36719e-015
rhumerus 0 0 0
rradius 0
rwrist 0
rhand 0 0
rfingers 0
rthumb 0 0
lclavicle 1.61513e-015 -5.36719e-015
lhumerus -35.4514 -9.37081 91.0218
lradius 37.2181
lwrist -6.34034
lhand 0 0
lfingers 0
lthumb 0 0
rfemur 8.31717 -4.39471 14.1632
rtibia 1.58558
rfoot -16.1745 -6.29038
rtoes 1.35338
lfemur 10.0573 -1.67861 -16.3851
ltibia -2.56674
lfoot -9.83568 7.72584
ltoes 0
5
root -28.7672 17.125 1.02666 16.7345 87.0962 15.3245
lowerback 3.99992 1.74643 -3.53652
upperback 1.46227 2.2095 -0.554468
thorax -0.849369 1.11032 1.30672
lowerneck -22.0583 2.00115 4.62657
upperneck 25.1992 1.36759 0.141909
head 11.994 1.17216 -0.475414
rclavicle -1.08338e-014 9.34288e-015
rhumerus 0 0 0
rradius 0
rwrist 0
rhand 0 0
rfingers 0
rthumb 0 0
lclavicle -1.08338e-014 9.34288e-015
lhumerus -35.29 -9.10759 90.8686
lradius 37.1004
lwrist -6.47521
lhand 0 0
lfingers 0
lthumb 0 0
rfemur 8.25753 -4.51165 14.0699
rtibia 1.70439
rfoot -16.1993 -6.09504
rtoes 1.70822
lfemur 9.88186 -0.814765 -16.1561
ltibia -2.26236
lfoot -9.73841 6.91701
ltoes -20.1465
6
root -28.7673 17.1236 1.02899 16.9897 87.0307 15.5843
lowerback 3.91512 1.76451 -3.52592
upperback 1.54402 2.24083 -0.607164
thorax -0.717013 1.1238 1.24962
lowerneck -22.1571 2.06152 4.79936
upperneck 25.2901 1.43485 -0.0254557
head 12.0537 1.19787 -0.554828
rclavicle -1.58779e-014 1.41137e-014
rhumerus -35.7337 5.64201 -90.2551
rradius 33.7387
rwrist 0.23871
rhand -12.6488 -29.6982
rfingers 7.12502
rthumb 13.4317 -59.2451
lclavicle -1.58779e-014 1.41137e-014
lhumerus -29.4917 -11.8472 91.5046
lradius 26.5189
lwrist -3.14974
lhand -16.2855 -23.4413
lfingers 7.12502
lthumb 9.92477 6.30479
rfemur 8.12476 -4.8043 13.9135
rtibia 1.97776
rfoot -16.2366 -5.70393
rtoes 1.86143
lfemur 9.85842 -0.418799 -16.0625
ltibia -2.20031
lfoot -9.6777 6.61544
ltoes -20.4169
7
root -28.7678 17.121 1.03107 16.7732 87.0579 15.334
lowerback 4.33748 1.71936 -3.6607
upperback 1.18682 2.14338 -0.504181
thorax -1.32425 1.08631 1.4151
lowerneck -21.9665 2.17405 4.98898
upperneck 25.6702 1.5982 -0.16742
head 12.1731 1.28288 -0.61174
rclavicle -1.32689e-014 6.55989e-015
rhumerus -36.2989 5.91774 -90.2836
rradius 33.625
rwrist 0.58941
rhand -13.0805 -29.3918
rfingers 7.12502
rthumb 13.0156 -58.9658
lclavicle -1.32689e-014 6.55989e-015
lhumerus -30.3008 -12.5168 92.1933
lradius 28.3143
lwrist -0.756605
lhand -14.2734 -17.462
lfingers 7.12502
lthumb 11.8655 12.1818
rfemur 8.03727 -4.94965 13.8969
rtibia 2.09311
rfoot -16.2428 -5.59402
rtoes 1.83125
lfemur 9.86524 -0.557484 -16.0539
ltibia -2.28214
lfoot -9.66509 6.69766
ltoes -19.8319
8
root -28.7679 17.121 1.03137 18.8491 87.0976 17.3776
lowerback 4.2438 1.70382 -3.80353
upperback 1.23166 2.12275 -0.490822
thorax -1.23023 1.07444 1.51355
lowerneck -22.0363 2.21643 5.05114
upperneck 25.7131 1.64081 -0.198272
head 12.2062 1.30432 -0.625892
rclavicle 4.91992e-015 -1.59028e-015
rhumerus -36.2006 6.00236 -90.245
rradius 33.5563
rwrist 0.536796
rhand -13.1898 -29.2887
rfingers 7.12502
rthumb 12.9102 -58.8694
lclavicle 4.91992e-015 -1.59028e-015
lhumerus -30.023 -11.8575 91.8857
lradius 28.1677
lwrist -0.494215
lhand -12.8846 -18.5832
lfingers 7.12502
lthumb 13.2045 10.9786
rfemur 8.02689 -4.99977 13.7844
rtibia 2.05969
rfoot -16.2145 -5.62522
rtoes 1.9531
lfemur 9.73495 -0.255574 -16.0607
ltibia -2.14741
lfoot -9.63419 6.36137
ltoes -19.8261
9
root -28.7684 17.1231 1.03046 20.1032 87.0771 18.6268
lowerback 4.31446 1.70974 -3.86515
upperback 1.17992 2.12275 -0.502542
thorax -1.32466 1.07659 1.53274
lowerneck -21.9578 2.20625 5.05077
upperneck 25.7143 1.63977 -0.219521
head 12.1912 1.30176 -0.634576
rclavicle 2.73329e-015 1.68967e-014
rhumerus -36.3311 6.0406 -90.2611
rradius 33.6502
rwrist 0.510359
rhand -13.1483 -29.3917
rfingers 7.12502
rthumb 12.9503 -58.9698
lclavicle 2.73329e-015 1.68967e-014
lhumerus -30.0171 -11.5306 91.7695
lradius 28.0878
lwrist -0.525731
lhand -11.9389 -18.929
lfingers 7.12502
lthumb 14.1159 10.5715
rfemur 8.01464 -5.05498 13.6815
rtibia 2.06727
rfoot -16.2149 -5.55932
rtoes 2.04941
lfemur 9.6812 -0.130325 -16.1253
ltibia -2.07025
lfoot -9.61381 6.25444
ltoes -19.5012
